<svg xmlns="http://www.w3.org/2000/svg" xmlns:xlink="http://www.w3.org/1999/xlink" fill="none" version="1.1" width="334" height="334" viewBox="0 0 334 334"><defs><linearGradient x1="0.5098039507865906" y1="1.039370059967041" x2="0.5098039507865906" y2="-2.5573654305333093e-10" id="master_svg0_0_2877"><stop offset="0%" stop-color="#FFF06D" stop-opacity="1"/><stop offset="100%" stop-color="#FFF06D" stop-opacity="0"/></linearGradient><linearGradient x1="0.5098039507865906" y1="1.039370059967041" x2="0.5098039507865906" y2="-2.5573654305333093e-10" id="master_svg1_0_2877"><stop offset="0%" stop-color="#FFF06D" stop-opacity="1"/><stop offset="100%" stop-color="#FFF06D" stop-opacity="0"/></linearGradient><linearGradient x1="0.5098039507865906" y1="1.039370059967041" x2="0.5098039507865906" y2="-2.5573654305333093e-10" id="master_svg2_0_2877"><stop offset="0%" stop-color="#FFF06D" stop-opacity="1"/><stop offset="100%" stop-color="#FFF06D" stop-opacity="0"/></linearGradient><linearGradient x1="0.5098039507865906" y1="1.039370059967041" x2="0.5098039507865906" y2="-2.5573654305333093e-10" id="master_svg3_0_2877"><stop offset="0%" stop-color="#FFF06D" stop-opacity="1"/><stop offset="100%" stop-color="#FFF06D" stop-opacity="0"/></linearGradient><linearGradient x1="0.5098039507865906" y1="1.039370059967041" x2="0.5098039507865906" y2="-2.5573654305333093e-10" id="master_svg4_0_2877"><stop offset="0%" stop-color="#FFF06D" stop-opacity="1"/><stop offset="100%" stop-color="#FFF06D" stop-opacity="0"/></linearGradient><linearGradient x1="0.5098039507865906" y1="1.039370059967041" x2="0.5098039507865906" y2="-2.5573654305333093e-10" id="master_svg5_0_2877"><stop offset="0%" stop-color="#FFF06D" stop-opacity="1"/><stop offset="100%" stop-color="#FFF06D" stop-opacity="0"/></linearGradient><linearGradient x1="0.5098039507865906" y1="1.039370059967041" x2="0.5098039507865906" y2="-2.5573654305333093e-10" id="master_svg6_0_2877"><stop offset="0%" stop-color="#FFF06D" stop-opacity="1"/><stop offset="100%" stop-color="#FFF06D" stop-opacity="0"/></linearGradient><linearGradient x1="0.5098039507865906" y1="1.039370059967041" x2="0.5098039507865906" y2="-2.5573654305333093e-10" id="master_svg7_0_2877"><stop offset="0%" stop-color="#FFF06D" stop-opacity="1"/><stop offset="100%" stop-color="#FFF06D" stop-opacity="0"/></linearGradient><linearGradient x1="0.5098039507865906" y1="1.039370059967041" x2="0.5098039507865906" y2="-2.5573654305333093e-10" id="master_svg8_0_2877"><stop offset="0%" stop-color="#FFF06D" stop-opacity="1"/><stop offset="100%" stop-color="#FFF06D" stop-opacity="0"/></linearGradient><linearGradient x1="0.5098039507865906" y1="1.039370059967041" x2="0.5098039507865906" y2="-2.5573654305333093e-10" id="master_svg9_0_2877"><stop offset="0%" stop-color="#FFF06D" stop-opacity="1"/><stop offset="100%" stop-color="#FFF06D" stop-opacity="0"/></linearGradient><linearGradient x1="0.5098039507865906" y1="1.039370059967041" x2="0.5098039507865906" y2="-2.5573654305333093e-10" id="master_svga_0_2877"><stop offset="0%" stop-color="#FFF06D" stop-opacity="1"/><stop offset="100%" stop-color="#FFF06D" stop-opacity="0"/></linearGradient><linearGradient x1="0.5098039507865906" y1="1.039370059967041" x2="0.5098039507865906" y2="-2.5573654305333093e-10" id="master_svgb_0_2877"><stop offset="0%" stop-color="#FFF06D" stop-opacity="1"/><stop offset="100%" stop-color="#FFF06D" stop-opacity="0"/></linearGradient><linearGradient x1="0.5098039507865906" y1="1.039370059967041" x2="0.5098039507865906" y2="-2.5573654305333093e-10" id="master_svgc_0_2877"><stop offset="0%" stop-color="#FFF06D" stop-opacity="1"/><stop offset="100%" stop-color="#FFF06D" stop-opacity="0"/></linearGradient><linearGradient x1="0.5098039507865906" y1="1.039370059967041" x2="0.5098039507865906" y2="-2.5573654305333093e-10" id="master_svgd_0_2877"><stop offset="0%" stop-color="#FFF06D" stop-opacity="1"/><stop offset="100%" stop-color="#FFF06D" stop-opacity="0"/></linearGradient><linearGradient x1="0.5098039507865906" y1="1.039370059967041" x2="0.5098039507865906" y2="-2.5573654305333093e-10" id="master_svge_0_2877"><stop offset="0%" stop-color="#FFF06D" stop-opacity="1"/><stop offset="100%" stop-color="#FFF06D" stop-opacity="0"/></linearGradient><linearGradient x1="0.5098039507865906" y1="1.039370059967041" x2="0.5098039507865906" y2="-2.5573654305333093e-10" id="master_svgf_0_2877"><stop offset="0%" stop-color="#FFF06D" stop-opacity="1"/><stop offset="100%" stop-color="#FFF06D" stop-opacity="0"/></linearGradient><linearGradient x1="0.5098039507865906" y1="1.039370059967041" x2="0.5098039507865906" y2="-2.5573654305333093e-10" id="master_svgg_0_2877"><stop offset="0%" stop-color="#FFF06D" stop-opacity="1"/><stop offset="100%" stop-color="#FFF06D" stop-opacity="0"/></linearGradient><linearGradient x1="0.5098039507865906" y1="1.039370059967041" x2="0.5098039507865906" y2="-2.5573654305333093e-10" id="master_svgh_0_2877"><stop offset="0%" stop-color="#FFF06D" stop-opacity="1"/><stop offset="100%" stop-color="#FFF06D" stop-opacity="0"/></linearGradient><linearGradient x1="0.5098039507865906" y1="1.039370059967041" x2="0.5098039507865906" y2="-2.5573654305333093e-10" id="master_svgi_0_2877"><stop offset="0%" stop-color="#FFF06D" stop-opacity="1"/><stop offset="100%" stop-color="#FFF06D" stop-opacity="0"/></linearGradient><linearGradient x1="0.5098039507865906" y1="1.039370059967041" x2="0.5098039507865906" y2="-2.5573654305333093e-10" id="master_svgj_0_2877"><stop offset="0%" stop-color="#FFF06D" stop-opacity="1"/><stop offset="100%" stop-color="#FFF06D" stop-opacity="0"/></linearGradient><linearGradient x1="0.5098039507865906" y1="1.039370059967041" x2="0.5098039507865906" y2="-2.5573654305333093e-10" id="master_svgk_0_2877"><stop offset="0%" stop-color="#FFF06D" stop-opacity="1"/><stop offset="100%" stop-color="#FFF06D" stop-opacity="0"/></linearGradient><linearGradient x1="0.5098039507865906" y1="1.039370059967041" x2="0.5098039507865906" y2="-2.5573654305333093e-10" id="master_svgl_0_2877"><stop offset="0%" stop-color="#FFF06D" stop-opacity="1"/><stop offset="100%" stop-color="#FFF06D" stop-opacity="0"/></linearGradient><linearGradient x1="0.5098039507865906" y1="1.039370059967041" x2="0.5098039507865906" y2="-2.5573654305333093e-10" id="master_svgm_0_2877"><stop offset="0%" stop-color="#FFF06D" stop-opacity="1"/><stop offset="100%" stop-color="#FFF06D" stop-opacity="0"/></linearGradient><linearGradient x1="0.5098039507865906" y1="1.039370059967041" x2="0.5098039507865906" y2="-2.5573654305333093e-10" id="master_svgn_0_2877"><stop offset="0%" stop-color="#FFF06D" stop-opacity="1"/><stop offset="100%" stop-color="#FFF06D" stop-opacity="0"/></linearGradient><radialGradient cx="0" cy="0" r="1" gradientUnits="userSpaceOnUse" id="master_svgo_0_2903" gradientTransform="translate(167.5 167.5) rotate(90) scale(97.5 97.5)"><stop offset="0%" stop-color="#FFE205" stop-opacity="1"/><stop offset="100%" stop-color="#FFE205" stop-opacity="0"/></radialGradient></defs><g><g><path d="M150.2342529296875,-2.2737367544323206e-13C150.2342529296875,-2.2737367544323206e-13,183.7657529296875,-2.2737367544323206e-13,183.7657529296875,-2.2737367544323206e-13C183.7657529296875,-2.2737367544323206e-13,170.6161529296875,166.99999999999977,170.6161529296875,166.99999999999977C170.6161529296875,166.99999999999977,163.3838529296875,166.99999999999977,163.3838529296875,166.99999999999977C163.3838529296875,166.99999999999977,150.2342529296875,-2.2737367544323206e-13,150.2342529296875,-2.2737367544323206e-13Z" fill="url(#master_svg0_0_2877)" fill-opacity="1"/></g><g transform="matrix(-1,0,0,-1,367.531494140625,668)"><path d="M183.7657470703125,334C183.7657470703125,334,217.2972470703125,334,217.2972470703125,334C217.2972470703125,334,204.1476470703125,501,204.1476470703125,501C204.1476470703125,501,196.9153470703125,501,196.9153470703125,501C196.9153470703125,501,183.7657470703125,334,183.7657470703125,334Z" fill="url(#master_svg1_0_2877)" fill-opacity="1"/></g><g transform="matrix(0,1,-1,0,484.2342529296875,-183.7657470703125)"><path d="M334,150.2342529296875C334,150.2342529296875,367.5315,150.2342529296875,367.5315,150.2342529296875C367.5315,150.2342529296875,354.3819,317.2342529296875,354.3819,317.2342529296875C354.3819,317.2342529296875,347.1496,317.2342529296875,347.1496,317.2342529296875C347.1496,317.2342529296875,334,150.2342529296875,334,150.2342529296875Z" fill="url(#master_svg2_0_2877)" fill-opacity="1"/></g><g transform="matrix(0,-1,1,0,-183.76574707031253,183.76574707031247)"><path d="M-2.842170943040401e-14,183.7657470703125C-2.842170943040401e-14,183.7657470703125,33.53149999999997,183.7657470703125,33.53149999999997,183.7657470703125C33.53149999999997,183.7657470703125,20.381899999999973,350.7657470703125,20.381899999999973,350.7657470703125C20.381899999999973,350.7657470703125,13.149599999999971,350.7657470703125,13.149599999999971,350.7657470703125C13.149599999999971,350.7657470703125,-2.842170943040401e-14,183.7657470703125,-2.842170943040401e-14,183.7657470703125Z" fill="url(#master_svg3_0_2877)" fill-opacity="1"/></g><g transform="matrix(0.9659258127212524,0.258819043636322,-0.258819043636322,0.9659258127212524,6.9610418013747335,-50.172187448199)"><path d="M194.0283203125,1.3510770797729492C194.0283203125,1.3510770797729492,227.5598203125,1.3510770797729492,227.5598203125,1.3510770797729492C227.5598203125,1.3510770797729492,214.4102203125,168.35107707977295,214.4102203125,168.35107707977295C214.4102203125,168.35107707977295,207.1779203125,168.35107707977295,207.1779203125,168.35107707977295C207.1779203125,168.35107707977295,194.0283203125,1.3510770797729492,194.0283203125,1.3510770797729492Z" fill="url(#master_svg4_0_2877)" fill-opacity="1"/></g><g transform="matrix(-0.9659258127212524,-0.258819043636322,0.258819043636322,-0.9659258127212524,189.07806131025427,690.1904460402438)"><path d="M139.9716796875,332.64892578125C139.9716796875,332.64892578125,173.5031796875,332.64892578125,173.5031796875,332.64892578125C173.5031796875,332.64892578125,160.3535796875,499.64892578125,160.3535796875,499.64892578125C160.3535796875,499.64892578125,153.1212796875,499.64892578125,153.1212796875,499.64892578125C153.1212796875,499.64892578125,139.9716796875,332.64892578125,139.9716796875,332.64892578125Z" fill="url(#master_svg5_0_2877)" fill-opacity="1"/></g><g transform="matrix(-0.2588191032409668,0.9659258127212524,-0.9659258127212524,-0.2588191032409668,606.1617559570986,-77.0676662230835)"><path d="M332.64892578125,194.02828979492188C332.64892578125,194.02828979492188,366.18042578125,194.02828979492188,366.18042578125,194.02828979492188C366.18042578125,194.02828979492188,353.03082578125,361.0282897949219,353.03082578125,361.0282897949219C353.03082578125,361.0282897949219,345.79852578125,361.0282897949219,345.79852578125,361.0282897949219C345.79852578125,361.0282897949219,332.64892578125,194.02828979492188,332.64892578125,194.02828979492188Z" fill="url(#master_svg6_0_2877)" fill-opacity="1"/></g><g transform="matrix(0.2588191032409668,-0.9659258127212524,0.9659258127212524,0.2588191032409668,-134.2008804841425,105.04941737692282)"><path d="M1.3510972261428833,139.97171020507812C1.3510972261428833,139.97171020507812,34.882597226142884,139.97171020507812,34.882597226142884,139.97171020507812C34.882597226142884,139.97171020507812,21.732997226142885,306.9717102050781,21.732997226142885,306.9717102050781C21.732997226142885,306.9717102050781,14.500697226142883,306.9717102050781,14.500697226142883,306.9717102050781C14.500697226142883,306.9717102050781,1.3510972261428833,139.97171020507812,1.3510972261428833,139.97171020507812Z" fill="url(#master_svg7_0_2877)" fill-opacity="1"/></g><g transform="matrix(0.8660253882408142,0.5,-0.5,0.8660253882408142,38.61082916866053,-116.11580415552794)"><path d="M235.98045349121094,13.99087905883789C235.98045349121094,13.99087905883789,269.51195349121093,13.99087905883789,269.51195349121093,13.99087905883789C269.51195349121093,13.99087905883789,256.3623534912109,180.9908790588379,256.3623534912109,180.9908790588379C256.3623534912109,180.9908790588379,249.13005349121093,180.9908790588379,249.13005349121093,180.9908790588379C249.13005349121093,180.9908790588379,235.98045349121094,13.99087905883789,235.98045349121094,13.99087905883789Z" fill="url(#master_svg8_0_2877)" fill-opacity="1"/></g><g transform="matrix(-0.8660253882408142,-0.5,0.5,-0.8660253882408142,22.902399951321968,646.1549245175502)"><path d="M98.01954650878906,320.0091247558594C98.01954650878906,320.0091247558594,131.55104650878906,320.0091247558594,131.55104650878906,320.0091247558594C131.55104650878906,320.0091247558594,118.40144650878906,487.0091247558594,118.40144650878906,487.0091247558594C118.40144650878906,487.0091247558594,111.16914650878905,487.0091247558594,111.16914650878905,487.0091247558594C111.16914650878905,487.0091247558594,98.01954650878906,320.0091247558594,98.01954650878906,320.0091247558594Z" fill="url(#master_svg9_0_2877)" fill-opacity="1"/></g><g transform="matrix(-0.5000000596046448,0.8660253882408142,-0.8660253882408142,-0.5000000596046448,684.378703987295,76.83455335412873)"><path d="M320.0091247558594,235.98037719726562C320.0091247558594,235.98037719726562,353.54062475585937,235.98037719726562,353.54062475585937,235.98037719726562C353.54062475585937,235.98037719726562,340.39102475585935,402.9803771972656,340.39102475585935,402.9803771972656C340.39102475585935,402.9803771972656,333.1587247558594,402.9803771972656,333.1587247558594,402.9803771972656C333.1587247558594,402.9803771972656,320.0091247558594,235.98037719726562,320.0091247558594,235.98037719726562Z" fill="url(#master_svga_0_2877)" fill-opacity="1"/></g><g transform="matrix(0.5000000596046448,-0.8660253882408142,0.8660253882408142,0.5000000596046448,-77.89204319745863,61.12626202770275)"><path d="M13.99087905883789,98.01962280273438C13.99087905883789,98.01962280273438,47.52237905883789,98.01962280273438,47.52237905883789,98.01962280273438C47.52237905883789,98.01962280273438,34.37277905883789,265.0196228027344,34.37277905883789,265.0196228027344C34.37277905883789,265.0196228027344,27.14047905883789,265.0196228027344,27.14047905883789,265.0196228027344C27.14047905883789,265.0196228027344,13.99087905883789,98.01962280273438,13.99087905883789,98.01962280273438Z" fill="url(#master_svgb_0_2877)" fill-opacity="1"/></g><g transform="matrix(0.7071067690849304,0.7071067690849304,-0.7071067690849304,0.7071067690849304,106.2317315031346,-182.34994165065882)"><path d="M273.2317199707031,37.058067321777344C273.2317199707031,37.058067321777344,306.7632199707031,37.058067321777344,306.7632199707031,37.058067321777344C306.7632199707031,37.058067321777344,293.6136199707031,204.05806732177734,293.6136199707031,204.05806732177734C293.6136199707031,204.05806732177734,286.38131997070315,204.05806732177734,286.38131997070315,204.05806732177734C286.38131997070315,204.05806732177734,273.2317199707031,37.058067321777344,273.2317199707031,37.058067321777344Z" fill="url(#master_svgc_0_2877)" fill-opacity="1"/></g><g transform="matrix(-0.7071067690849304,-0.7071067690849304,0.7071067690849304,-0.7071067690849304,-106.23165094671094,549.881254009515)"><path d="M60.768310546875,296.9419250488281C60.768310546875,296.9419250488281,94.299810546875,296.9419250488281,94.299810546875,296.9419250488281C94.299810546875,296.9419250488281,81.150210546875,463.9419250488281,81.150210546875,463.9419250488281C81.150210546875,463.9419250488281,73.91791054687499,463.9419250488281,73.91791054687499,463.9419250488281C73.91791054687499,463.9419250488281,60.768310546875,296.9419250488281,60.768310546875,296.9419250488281Z" fill="url(#master_svgd_0_2877)" fill-opacity="1"/></g><g transform="matrix(-0.7071068286895752,0.7071067690849304,-0.7071067690849304,-0.7071068286895752,700.1156135102665,256.4657124312944)"><path d="M296.9420166015625,273.2315368652344C296.9420166015625,273.2315368652344,330.4735166015625,273.2315368652344,330.4735166015625,273.2315368652344C330.4735166015625,273.2315368652344,317.3239166015625,440.2315368652344,317.3239166015625,440.2315368652344C317.3239166015625,440.2315368652344,310.0916166015625,440.2315368652344,310.0916166015625,440.2315368652344C310.0916166015625,440.2315368652344,296.9420166015625,273.2315368652344,296.9420166015625,273.2315368652344Z" fill="url(#master_svge_0_2877)" fill-opacity="1"/></g><g transform="matrix(0.7071068286895752,-0.7071067690849304,0.7071067690849304,0.7071068286895752,-32.115757726543734,44.0026046513849)"><path d="M37.05796813964844,60.76845169067383C37.05796813964844,60.76845169067383,70.58946813964843,60.76845169067383,70.58946813964843,60.76845169067383C70.58946813964843,60.76845169067383,57.43986813964844,227.76845169067383,57.43986813964844,227.76845169067383C57.43986813964844,227.76845169067383,50.20756813964844,227.76845169067383,50.20756813964844,227.76845169067383C50.20756813964844,227.76845169067383,37.05796813964844,60.76845169067383,37.05796813964844,60.76845169067383Z" fill="url(#master_svgf_0_2877)" fill-opacity="1"/></g><g transform="matrix(0.5,0.8660253882408142,-0.8660253882408142,0.5,211.3605855382698,-228.1261951843062)"><path d="M303.2433776855469,68.98053741455078C303.2433776855469,68.98053741455078,336.77487768554687,68.98053741455078,336.77487768554687,68.98053741455078C336.77487768554687,68.98053741455078,323.62527768554685,235.98053741455078,323.62527768554685,235.98053741455078C323.62527768554685,235.98053741455078,316.3929776855469,235.98053741455078,316.3929776855469,235.98053741455078C316.3929776855469,235.98053741455078,303.2433776855469,68.98053741455078,303.2433776855469,68.98053741455078Z" fill="url(#master_svgg_0_2877)" fill-opacity="1"/></g><g transform="matrix(-0.5,-0.8660253882408142,0.8660253882408142,-0.5,-183.37864752943642,424.165226058553)"><path d="M30.756628036499023,265.01947021484375C30.756628036499023,265.01947021484375,64.28812803649902,265.01947021484375,64.28812803649902,265.01947021484375C64.28812803649902,265.01947021484375,51.138528036499025,432.01947021484375,51.138528036499025,432.01947021484375C51.138528036499025,432.01947021484375,43.90622803649902,432.01947021484375,43.90622803649902,432.01947021484375C43.90622803649902,432.01947021484375,30.756628036499023,265.01947021484375,30.756628036499023,265.01947021484375Z" fill="url(#master_svgh_0_2877)" fill-opacity="1"/></g><g transform="matrix(-0.866025447845459,0.4999999701976776,-0.4999999701976776,-0.866025447845459,646.1549638397828,433.3497714157884)"><path d="M265.0196228027344,303.24322509765625C265.0196228027344,303.24322509765625,298.55112280273437,303.24322509765625,298.55112280273437,303.24322509765625C298.55112280273437,303.24322509765625,285.40152280273435,470.24322509765625,285.40152280273435,470.24322509765625C285.40152280273435,470.24322509765625,278.1692228027344,470.24322509765625,278.1692228027344,470.24322509765625C278.1692228027344,470.24322509765625,265.0196228027344,303.24322509765625,265.0196228027344,303.24322509765625Z" fill="url(#master_svgi_0_2877)" fill-opacity="1"/></g><g transform="matrix(0.866025447845459,-0.4999999701976776,0.4999999701976776,0.866025447845459,-6.136778067813395,38.610813474870156)"><path d="M68.98037719726562,30.75678825378418C68.98037719726562,30.75678825378418,102.51187719726562,30.75678825378418,102.51187719726562,30.75678825378418C102.51187719726562,30.75678825378418,89.36227719726563,197.75678825378418,89.36227719726563,197.75678825378418C89.36227719726563,197.75678825378418,82.12997719726562,197.75678825378418,82.12997719726562,197.75678825378418C82.12997719726562,197.75678825378418,68.98037719726562,30.75678825378418,68.98037719726562,30.75678825378418Z" fill="url(#master_svgj_0_2877)" fill-opacity="1"/></g><g transform="matrix(0.258819043636322,0.9659258127212524,-0.9659258127212524,0.258819043636322,344.0376120712217,-233.19296887272367)"><path d="M323.9703063964844,107.5827865600586C323.9703063964844,107.5827865600586,357.50180639648437,107.5827865600586,357.50180639648437,107.5827865600586C357.50180639648437,107.5827865600586,344.35220639648435,274.5827865600586,344.35220639648435,274.5827865600586C344.35220639648435,274.5827865600586,337.1199063964844,274.5827865600586,337.1199063964844,274.5827865600586C337.1199063964844,274.5827865600586,323.9703063964844,107.5827865600586,323.9703063964844,107.5827865600586Z" fill="url(#master_svgk_0_2877)" fill-opacity="1"/></g><g transform="matrix(-0.258819043636322,-0.9659258127212524,0.9659258127212524,-0.258819043636322,-206.07665455950223,294.7062606887598)"><path d="M10.029705047607422,226.41722106933594C10.029705047607422,226.41722106933594,43.56120504760742,226.41722106933594,43.56120504760742,226.41722106933594C43.56120504760742,226.41722106933594,30.411605047607424,393.41722106933594,30.411605047607424,393.41722106933594C30.411605047607424,393.41722106933594,23.17930504760742,393.41722106933594,23.17930504760742,393.41722106933594C23.17930504760742,393.41722106933594,10.029705047607422,226.41722106933594,10.029705047607422,226.41722106933594Z" fill="url(#master_svgl_0_2877)" fill-opacity="1"/></g><g transform="matrix(-0.9659258723258972,0.25881898403167725,-0.25881898403167725,-0.9659258723258972,528.9693546839089,578.3003205057521)"><path d="M226.41734313964844,323.97021484375C226.41734313964844,323.97021484375,259.94884313964843,323.97021484375,259.94884313964843,323.97021484375C259.94884313964843,323.97021484375,246.79924313964844,490.97021484375,246.79924313964844,490.97021484375C246.79924313964844,490.97021484375,239.56694313964843,490.97021484375,239.56694313964843,490.97021484375C239.56694313964843,490.97021484375,226.41734313964844,323.97021484375,226.41734313964844,323.97021484375Z" fill="url(#master_svgm_0_2877)" fill-opacity="1"/></g><g transform="matrix(0.9659258723258972,-0.25881898403167725,0.25881898403167725,0.9659258723258972,1.06988586125226,28.186186178718344)"><path d="M107.5826416015625,10.02978515625C107.5826416015625,10.02978515625,141.1141416015625,10.02978515625,141.1141416015625,10.02978515625C141.1141416015625,10.02978515625,127.9645416015625,177.02978515625,127.9645416015625,177.02978515625C127.9645416015625,177.02978515625,120.73224160156249,177.02978515625,120.73224160156249,177.02978515625C120.73224160156249,177.02978515625,107.5826416015625,10.02978515625,107.5826416015625,10.02978515625Z" fill="url(#master_svgn_0_2877)" fill-opacity="1"/></g><g><ellipse cx="167.5" cy="167.5" rx="97.5" ry="97.5" fill="url(#master_svgo_0_2903)" fill-opacity="1"/></g></g></svg>